<svg width="129" height="32" viewBox="0 0 129 32" fill="none" xmlns="http://www.w3.org/2000/svg">
<path d="M14.8731 6.25876V2.25876H1.97314V29.7411H14.8731V25.7411C12.2306 25.7411 9.6962 24.7148 7.82766 22.8879C5.95909 21.0611 4.90934 18.5835 4.90934 15.9999C4.90934 13.4164 5.95909 10.9387 7.82766 9.11189C9.6962 7.28506 12.2306 6.25876 14.8731 6.25876Z" fill="#2C3131"/>
<path d="M14.874 6.25875V25.7411C17.5166 25.7411 20.051 24.7148 21.9195 22.8879C23.7881 21.0611 24.8378 18.5835 24.8378 15.9999C24.8378 13.4164 23.7881 10.9387 21.9195 9.11188C20.051 7.28506 17.5166 6.25875 14.874 6.25875Z" fill="#2C3131"/>
<path d="M37.7533 24.122C37.0987 24.122 36.4858 23.9904 35.9146 23.7273C35.3498 23.4641 34.8877 23.0309 34.5283 22.4276C34.1882 21.8436 34.0181 21.0863 34.0181 20.1557V13.6479H36.9832V19.3085C36.9832 20.0659 37.1725 20.605 37.5511 20.9259C37.9298 21.2468 38.3887 21.4072 38.9278 21.4072C39.7236 21.3045 40.3044 21.0093 40.6702 20.5215C41.0361 20.0338 41.219 19.4497 41.219 18.7694V13.6479H44.1648V24.0065H41.219V22.1773C40.4617 23.4738 39.3064 24.122 37.7533 24.122ZM50.0017 24.0065H47.0366V13.6479H50.0017V15.5156C50.7333 14.232 51.8757 13.5709 53.4289 13.5324V16.3242L53.0053 16.305C52.5111 16.305 52.033 16.3916 51.5709 16.5649C51.1152 16.7318 50.7397 17.0173 50.4445 17.4217C50.1493 17.826 50.0017 18.3587 50.0017 19.0197V24.0065ZM61.2077 24.2182C59.1796 24.2182 57.4949 23.554 56.1536 22.2255C54.8122 20.897 54.1415 19.2315 54.1415 17.2291C54.1415 15.2781 54.825 13.6383 56.1921 12.3098C57.5591 10.9813 59.2695 10.3171 61.3232 10.3171C63.3256 10.3171 65.0969 11.0679 66.6372 12.5697L64.8659 14.7454C63.7877 13.5645 62.6196 12.9741 61.3617 12.9741C60.2193 12.9741 59.2502 13.3623 58.4544 14.1389C57.6586 14.9155 57.2606 15.9327 57.2606 17.1906C57.2606 17.7233 57.3473 18.2432 57.5206 18.7502C57.6939 19.2572 57.9506 19.7129 58.2907 20.1172C58.6309 20.5215 59.0577 20.8456 59.5711 21.0895C60.0845 21.327 60.6814 21.4457 61.3617 21.4457C62.5683 21.4457 63.7363 20.913 64.8659 19.8476L66.6565 21.7923C64.975 23.4096 63.1587 24.2182 61.2077 24.2182ZM71.3801 24.0065H68.415V13.6479H71.3801V15.5156C72.1117 14.232 73.2541 13.5709 74.8073 13.5324V16.3242L74.3837 16.305C73.8895 16.305 73.4114 16.3916 72.9493 16.5649C72.4936 16.7318 72.1182 17.0173 71.8229 17.4217C71.5277 17.826 71.3801 18.3587 71.3801 19.0197V24.0065ZM78.1272 27.8765C77.0361 27.8765 76.0991 27.5427 75.3161 26.8753L76.5676 24.7381C77.004 25.1103 77.4533 25.2965 77.9154 25.2965C78.5443 25.2965 79 24.9884 79.2824 24.3723L79.5712 23.7947L75.2776 13.6479H78.339L81.0537 20.7718L83.499 13.6479H86.464L81.9202 25.1617C81.1885 26.9715 79.9242 27.8765 78.1272 27.8765ZM90.8241 27.7417H87.859V13.6479H90.8241V15.169C91.6071 14.0908 92.6981 13.5517 94.0972 13.5517C94.7262 13.5517 95.3327 13.6544 95.9167 13.8597C96.5008 14.0587 97.0206 14.3732 97.4763 14.8032C97.9319 15.2332 98.2946 15.7851 98.5641 16.459C98.8337 17.1329 98.9684 17.9415 98.9684 18.885C98.9684 20.3996 98.5449 21.6511 97.6977 22.6394C96.8505 23.6278 95.6696 24.122 94.155 24.122C92.7174 24.122 91.6071 23.5829 90.8241 22.5047V27.7417ZM93.4041 21.6575C94.2513 21.6575 94.8899 21.3783 95.3199 20.82C95.7499 20.2616 95.9649 19.5845 95.9649 18.7887C95.9649 18.0314 95.7531 17.3671 95.3295 16.7959C94.9059 16.2247 94.2641 15.9391 93.4041 15.9391C92.5441 15.9391 91.8991 16.2215 91.4691 16.7863C91.0391 17.3511 90.8241 18.0185 90.8241 18.7887C90.8241 19.7514 91.0776 20.4702 91.5846 20.9451C92.0916 21.42 92.6981 21.6575 93.4041 21.6575ZM104.64 24.1412C103.716 24.1412 102.943 23.8877 102.32 23.3807C101.698 22.8737 101.387 22.0618 101.387 20.9451V16.1509H99.9426V14.11H101.387V11.2605H104.332V14.11H107.143V16.1702H104.332V20.4445C104.332 21.2403 104.647 21.6382 105.276 21.6382C105.687 21.6382 106.168 21.5099 106.72 21.2532L107.336 23.4288C106.514 23.9038 105.616 24.1412 104.64 24.1412ZM113.726 24.122C112.519 24.122 111.502 23.8845 110.674 23.4096C109.808 22.9026 109.172 22.2479 108.768 21.4457C108.364 20.6435 108.161 19.7706 108.161 18.8272C108.161 17.672 108.409 16.7029 108.903 15.9199C109.435 15.1048 110.125 14.5079 110.973 14.1293C111.82 13.7442 112.737 13.5517 113.726 13.5517C115.305 13.5517 116.624 14.0009 117.682 14.8994C118.741 15.7979 119.271 17.1072 119.271 18.8272C119.271 19.5075 119.162 20.1653 118.944 20.8007C118.732 21.4297 118.398 21.9944 117.942 22.495C117.493 22.9956 116.919 23.3935 116.219 23.6888C115.52 23.9776 114.689 24.122 113.726 24.122ZM113.726 21.7153C114.432 21.7153 115.038 21.4746 115.545 20.9932C116.052 20.5119 116.306 19.8027 116.306 18.8657C116.306 17.9287 116.052 17.2195 115.545 16.7382C115.038 16.2568 114.432 16.0162 113.726 16.0162C113.007 16.0162 112.394 16.2568 111.887 16.7382C111.38 17.2195 111.127 17.9287 111.127 18.8657C111.127 19.8027 111.38 20.5119 111.887 20.9932C112.394 21.4746 113.007 21.7153 113.726 21.7153Z" fill="#2C3131"/>
<path d="M124.687 12.9318C125.856 12.9318 126.805 12.0047 126.805 10.8612C126.805 9.71768 125.856 8.79062 124.687 8.79062C123.517 8.79062 122.569 9.71768 122.569 10.8612C122.569 12.0047 123.517 12.9318 124.687 12.9318Z" fill="#2C3131"/>
</svg>